<?xml version="1.0" encoding="UTF-8" standalone="no"?>
<!-- Created with Inkscape (http://www.inkscape.org/) -->

<svg
   width="9.3741856mm"
   height="11.322468mm"
   viewBox="0 0 9.3741856 11.322468"
   version="1.1"
   id="svg1"
   xml:space="preserve"
   xmlns="http://www.w3.org/2000/svg"
   xmlns:svg="http://www.w3.org/2000/svg"><defs
     id="defs1" /><g
     id="layer1"
     transform="translate(189.34904,-480.92245)"><g
       id="g92"><rect
         style="fill:none;fill-opacity:1;stroke:none;stroke-width:0.321101;stroke-dasharray:none;stroke-opacity:1"
         id="rect47-2-9-9"
         width="9.3741941"
         height="11.322475"
         x="-189.34906"
         y="480.92242" /><g
         id="g59"
         transform="translate(-28.792667,-24.718759)"><g
           id="g73"
           transform="translate(9.8885186,7.5618083)"><g
             id="g74"
             transform="translate(3.4547539,118.22936)" /><g
             id="g81"
             transform="translate(57.561426,103.72455)"><g
               id="g88"
               transform="matrix(0.13265664,0,0,0.13265664,-176.09657,321.77589)"><path
                 style="fill:#82dde1"
                 d="m -368.26022,629.08861 c 0.191,-0.0764 0.4192,-0.067 0.50712,0.0209 0.0879,0.0879 -0.0684,0.15045 -0.34727,0.13896 -0.30822,-0.0127 -0.37092,-0.0754 -0.15985,-0.15985 z m -11.042,-15.05485 c 0.0127,-0.30823 0.0754,-0.37092 0.15985,-0.15985 0.0764,0.19099 0.067,0.41919 -0.0209,0.50711 -0.0879,0.0879 -0.15045,-0.0684 -0.13896,-0.34726 z m 37.50033,-11.40349 c 0.191,-0.0764 0.4192,-0.067 0.50712,0.0209 0.0879,0.0879 -0.0683,0.15046 -0.34726,0.13897 -0.30823,-0.0127 -0.37092,-0.0754 -0.15986,-0.15986 z m 15.15175,-11.35068 c 0.0127,-0.30822 0.0754,-0.37092 0.15985,-0.15985 0.0764,0.19099 0.067,0.4192 -0.0209,0.50712 -0.0879,0.0879 -0.15046,-0.0684 -0.13897,-0.34727 z m 0,-3.70417 c 0.0127,-0.30822 0.0754,-0.37091 0.15985,-0.15985 0.0764,0.191 0.067,0.4192 -0.0209,0.50712 -0.0879,0.0879 -0.15046,-0.0684 -0.13897,-0.34727 z m -11.46412,-11.13338 c 0.18191,-0.0734 0.47956,-0.0734 0.66146,0 0.1819,0.0734 0.0331,0.13345 -0.33073,0.13345 -0.3638,0 -0.51263,-0.06 -0.33073,-0.13345 z"
                 id="path86" /><path
                 style="fill:#a157fe"
                 d="m -368.90859,602.41576 c -4.43212,-0.96386 -7.91345,-4.02532 -9.62967,-8.46829 -0.84427,-2.18565 -0.86663,-6.41576 -0.0458,-8.66476 1.41253,-3.8702 4.36516,-6.77141 8.42659,-8.27985 1.10539,-0.41054 2.40623,-0.49275 9.28905,-0.58703 l 8.00364,-0.10962 v 13.2524 13.2524 l -7.20989,-0.021 c -4.95186,-0.0145 -7.71852,-0.13165 -8.83392,-0.37422 z"
                 id="path85" /><path
                 style="fill:#18bbfe"
                 d="m -342.61987,602.39648 c -6.6316,-1.60665 -11.13156,-8.21818 -10.02754,-14.73286 1.22318,-7.21785 7.83251,-12.16465 14.81289,-11.08682 9.68948,1.49614 14.48193,12.19377 9.11556,20.34762 -2.93255,4.45583 -8.70932,6.72984 -13.90091,5.47206 z"
                 id="path84" /><path
                 style="fill:#fd7060"
                 d="m -352.86478,563.12351 v -13.22916 l 7.07761,0.005 c 7.91727,0.005 9.52505,0.21393 12.25354,1.59127 4.84283,2.44465 7.78652,8.2961 6.8771,13.67025 -0.90673,5.35819 -4.83731,9.5455 -10.13209,10.79387 -1.24534,0.29362 -3.44548,0.3915 -8.86626,0.39444 l -7.2099,0.004 z m -26.43744,-1.47725 c 0.0127,-0.30823 0.0754,-0.37092 0.15985,-0.15985 0.0764,0.19099 0.067,0.41919 -0.0209,0.50711 -0.0879,0.0879 -0.15045,-0.0684 -0.13896,-0.34726 z m 11.57117,-11.66807 c 0.19099,-0.0764 0.4192,-0.067 0.50712,0.0209 0.0879,0.0879 -0.0684,0.15045 -0.34727,0.13896 -0.30822,-0.0127 -0.37092,-0.0754 -0.15985,-0.15985 z"
                 id="path83" /><path
                 style="fill:#f24c1c"
                 d="m -368.47519,576.05653 c -5.19359,-0.83615 -9.74659,-5.57209 -10.59138,-11.01691 -1.07666,-6.93925 3.88977,-13.73914 10.85596,-14.86366 0.94589,-0.15269 4.78565,-0.27851 8.53281,-0.27961 l 6.81302,-0.002 v 13.22916 13.22917 l -7.0776,-0.0309 c -3.89268,-0.017 -7.73245,-0.13636 -8.53281,-0.26522 z"
                 id="path82" /><path
                 style="fill:#08ce82"
                 d="m -368.72484,628.99828 c -1.76227,-0.37172 -4.75158,-1.89616 -6.14052,-3.13144 -1.50465,-1.33821 -2.8571,-3.34908 -3.6729,-5.46103 -0.50151,-1.2983 -0.61322,-2.0936 -0.61322,-4.36563 0,-2.27203 0.11171,-3.06732 0.61322,-4.36562 1.27624,-3.30395 3.49059,-5.82309 6.42233,-7.30635 2.70166,-1.36685 4.11362,-1.54898 12.04126,-1.55328 l 7.20989,-0.004 v 7.23372 c 0,6.31851 -0.0656,7.49026 -0.51859,9.26141 -1.1083,4.33341 -4.22825,7.74477 -8.41143,9.19709 -1.75309,0.60864 -5.21804,0.85616 -6.93004,0.49505 z"
                 id="path81" /></g></g></g></g></g></g></svg>
