<?xml version="1.0" encoding="UTF-8" standalone="no"?>
<!-- Created with Inkscape (http://www.inkscape.org/) -->

<svg
   width="9.4589024mm"
   height="11.175997mm"
   viewBox="0 0 9.4589024 11.175997"
   version="1.1"
   id="svg1"
   xml:space="preserve"
   xmlns="http://www.w3.org/2000/svg"
   xmlns:svg="http://www.w3.org/2000/svg"><defs
     id="defs1" /><g
     id="layer1"
     transform="translate(189.56574,-446.7765)"><rect
       style="fill:none;fill-opacity:1;stroke:none;stroke-width:0.323442;stroke-dasharray:none;stroke-opacity:1"
       id="rect47"
       width="9.5113831"
       height="11.322475"
       x="-189.55515"
       y="446.74677" /><g
       id="g90"><rect
         style="fill:none;fill-opacity:1;stroke:none;stroke-width:0.31801;stroke-dasharray:none;stroke-opacity:1"
         id="rect31-2"
         width="9.4588928"
         height="11.175971"
         x="-189.56573"
         y="446.77652" /><path
         style="fill:#00ec63;fill-opacity:1;stroke-width:0.149754"
         d="m -184.79427,457.2729 c -0.002,-0.0487 -0.0243,-0.31162 -0.0499,-0.58424 l -0.0466,-0.49567 -0.18123,-0.15457 c -0.3157,-0.26926 -0.79577,-0.80987 -1.04262,-1.1741 -0.6204,-0.9154 -0.88437,-1.74745 -0.88117,-2.77749 0.002,-0.5964 0.0611,-0.93779 0.27058,-1.56052 0.25721,-0.7644 0.66881,-1.44932 1.49958,-2.49538 0.24999,-0.31476 0.48396,-0.61589 0.51995,-0.66917 0.036,-0.0533 0.0733,-0.088 0.083,-0.0772 0.01,0.0108 0.13193,0.17025 0.27167,0.35427 0.13974,0.18402 0.36652,0.47169 0.50396,0.63926 2.15272,2.62473 2.10682,5.37168 -0.12578,7.52855 l -0.40744,0.39363 -0.051,0.58061 -0.0511,0.5806 h -0.1544 c -0.13254,0 -0.15485,-0.0125 -0.15766,-0.0886 z m 0.30296,-1.28971 0.11519,-0.11865 -0.11316,-2.54819 c -0.0622,-1.40149 -0.11968,-2.55556 -0.12766,-2.56458 -0.008,-0.009 -0.0213,-0.009 -0.0296,0 -0.008,0.009 -0.067,1.15859 -0.13026,2.55458 l -0.11511,2.53819 0.11444,0.12865 c 0.063,0.0708 0.12719,0.12866 0.14275,0.12866 0.0156,0 0.0802,-0.0534 0.14348,-0.11866 z"
         id="path40" /></g></g></svg>
