<?xml version="1.0" encoding="UTF-8" standalone="no"?>
<!-- Created with Inkscape (http://www.inkscape.org/) -->

<svg
   width="9.3967772mm"
   height="10.655584mm"
   viewBox="0 0 9.3967772 10.655584"
   version="1.1"
   id="svg1"
   xml:space="preserve"
   xmlns="http://www.w3.org/2000/svg"
   xmlns:svg="http://www.w3.org/2000/svg"><defs
     id="defs1" /><g
     id="layer1"
     transform="translate(189.34681,-424.25533)"><g
       id="g11"
       transform="matrix(1.0445692,0,0,1.0598166,-2.2405387,-25.802425)"><path
         fill="#0277bd"
         d="m -170.12708,424.65625 h -8.99584 l 0.79375,8.99583 3.70417,1.05834 3.70417,-1.05834 z"
         id="path1-60"
         style="stroke-width:0.264583" /><path
         fill="#039be5"
         d="m -174.625,425.45 v 8.44021 l 2.96333,-0.84667 0.66146,-7.59354 z"
         id="path2-6"
         style="stroke-width:0.264583" /><path
         fill="#ffffff"
         d="m -172.21729,426.77292 h -2.40771 v 1.05833 h 1.29646 l -0.0794,1.05833 h -1.21708 v 1.05834 h 1.16417 l -0.0794,1.19062 -1.08479,0.37042 v 1.11125 l 2.09021,-0.68792 0.18521,-3.04271 v 0 z"
         id="path3-2"
         style="stroke-width:0.264583" /><path
         fill="#eeeeee"
         d="m -174.625,426.77292 v 1.05833 h -2.35479 l -0.0794,-1.05833 z m -1.21708,2.11666 0.0529,1.05834 h 1.16417 v -1.05834 z m 0.10583,1.5875 h -1.05833 l 0.0794,1.45521 2.09021,0.68792 v -1.11125 l -1.08479,-0.37042 z"
         id="path4-6"
         style="stroke-width:0.264583" /></g></g></svg>
