<?xml version="1.0" encoding="UTF-8" standalone="no"?>
<!-- Created with Inkscape (http://www.inkscape.org/) -->

<svg
   width="9.1963053mm"
   height="10.054167mm"
   viewBox="0 0 9.1963053 10.054167"
   version="1.1"
   id="svg1"
   xml:space="preserve"
   xmlns="http://www.w3.org/2000/svg"
   xmlns:svg="http://www.w3.org/2000/svg"><defs
     id="defs1" /><g
     id="layer1"
     transform="translate(189.50307,-413.56362)"><g
       id="g10"
       transform="matrix(1.0222847,0,0,1,-5.3065232,-1.303047)"><path
         fill="#e65100"
         d="m -171.18542,414.86667 h -8.99583 l 0.79375,8.99583 3.70417,1.05833 3.70416,-1.05833 z"
         id="path1-7"
         style="stroke-width:0.264583" /><path
         fill="#ff6d00"
         d="m -175.68333,415.66042 v 8.4402 l 2.96333,-0.84666 0.66146,-7.59354 z"
         id="path2-0"
         style="stroke-width:0.264583" /><path
         fill="#ffffff"
         d="M -175.68333,420.15833 V 419.1 h 2.27541 l -0.18521,3.04271 -2.0902,0.68791 v -1.11125 l 1.08479,-0.37041 0.0794,-1.19063 z m 2.35479,-2.11666 0.0794,-1.05834 h -2.43416 v 1.05834 z"
         id="path3-9"
         style="stroke-width:0.264583" /><path
         fill="#eeeeee"
         d="m -175.68333,421.71937 v 1.11125 l -2.09021,-0.68791 -0.10584,-1.45521 h 1.05834 l 0.0529,0.66146 z m -1.29646,-3.6777 h 1.29646 v -1.05834 h -2.40771 l 0.18521,3.175 h 2.2225 V 419.1 h -1.21709 z"
         id="path4-3"
         style="stroke-width:0.264583" /></g></g></svg>
