<?xml version="1.0" encoding="UTF-8" standalone="no"?>
<!-- Created with Inkscape (http://www.inkscape.org/) -->

<svg
   width="9.3742018mm"
   height="11.3225mm"
   viewBox="0 0 9.3742018 11.3225"
   version="1.1"
   id="svg1"
   xml:space="preserve"
   xmlns="http://www.w3.org/2000/svg"
   xmlns:svg="http://www.w3.org/2000/svg"><defs
     id="defs1" /><g
     id="layer1"
     transform="translate(189.48705,-458.09647)"><g
       id="g89"><rect
         style="fill:none;fill-opacity:1;stroke:none;stroke-width:0.321101;stroke-dasharray:none;stroke-opacity:1"
         id="rect47-2"
         width="9.3741941"
         height="11.322475"
         x="-189.48706"
         y="458.09647" /><g
         id="g9"
         transform="matrix(0.14271593,0,0,0.15174714,-201.4356,430.41366)"><ellipse
           style="fill:#ffffff;fill-opacity:1;stroke-width:0.402935"
           id="path8"
           cx="109.91223"
           cy="192.67714"
           rx="6.7196336"
           ry="5.7657118" /><ellipse
           style="fill:#ffffff;fill-opacity:1;stroke-width:0.402935"
           id="path8-6"
           cx="133.46663"
           cy="205.54593"
           rx="6.7196336"
           ry="5.7657118" /><ellipse
           style="fill:#ffffff;fill-opacity:1;stroke-width:0.476047"
           id="path8-6-5"
           cx="111.35295"
           cy="218.64084"
           rx="7.6679034"
           ry="7.0526495" /><ellipse
           style="fill:#ffffff;fill-opacity:1;stroke-width:0.476047"
           id="path8-6-5-4"
           cx="111.19404"
           cy="243.71298"
           rx="7.6679034"
           ry="7.0526495" /><ellipse
           style="fill:#ffffff;fill-opacity:1;stroke-width:0.476047"
           id="path8-6-5-4-8"
           cx="132.78201"
           cy="231.80025"
           rx="7.6679034"
           ry="7.0526495" /><path
           style="fill:#020202;stroke:none;stroke-width:0.510934"
           d="m 109.3743,201.84947 v 5.2722 c -10.634771,1.43324 -12.84923,16.44481 -3.78517,21.51302 1.21373,0.67866 2.52283,1.22195 3.92036,1.33317 v 5.54256 c -6.30895,0.93173 -8.87998,8.78578 -5.60412,13.78883 1.88341,2.87644 5.01924,3.99915 8.3078,3.91838 9.99111,-0.24541 11.05735,-16.36276 1.08148,-17.70721 v -3.78516 c 0,-0.46054 -0.12688,-1.17762 0.21676,-1.54597 0.47157,-0.50548 1.70999,-0.61297 2.35175,-0.8618 1.62604,-0.63047 3.63687,-1.81635 4.46109,-3.40517 1.07504,0.61239 3.6768,1.95612 4.16392,3.11467 0.34078,0.81054 -0.16142,2.4449 -0.0963,3.37419 0.15218,2.17128 1.27615,4.19482 2.82677,5.67233 6.94075,6.61352 17.93343,-1.48792 14.43681,-10.13342 -1.76415,-4.36188 -6.80581,-6.4439 -11.19238,-5.03615 -1.02118,0.32772 -2.01314,0.88092 -2.83888,1.56537 -0.38125,0.31602 -0.79087,0.91309 -1.35184,0.72505 -0.83122,-0.27862 -3.44847,-1.96395 -3.71142,-2.80904 -0.22879,-0.7353 0.40049,-2.03674 0.45489,-2.82668 0.11888,-1.72613 -0.13917,-3.36104 -0.66383,-5.00182 1.03157,-0.39111 1.94182,-1.20061 2.83888,-1.83522 0.3489,-0.24681 0.89296,-0.77473 1.35185,-0.7384 0.88305,0.0699 2.21537,1.58485 3.10924,1.99063 2.79715,1.26979 6.25802,0.91366 8.78701,-0.78096 8.14892,-5.4604 2.23853,-18.40197 -7.16479,-16.22528 -3.52449,0.81585 -6.38307,3.82543 -6.8553,7.45038 -0.1379,1.05859 0.46353,2.85964 0.0693,3.77297 -0.59218,1.37179 -2.94291,1.97047 -3.89355,3.12145 h -0.13517 c -1.47756,-2.23349 -4.48634,-3.97196 -7.16479,-4.19072 0,-1.2031 -0.51583,-3.94544 0.13894,-4.96085 0.44165,-0.6849 2.24796,-1.01947 2.97031,-1.48733 1.8219,-1.18004 3.18089,-3.07869 3.72049,-5.1777 0.51612,-2.00763 0.39744,-4.20081 -0.511,-6.08331 -0.74467,-1.54312 -1.76662,-2.82634 -3.20949,-3.77453 -1.24442,-0.81776 -2.59095,-1.24083 -4.05554,-1.44019 -4.56957,-0.62201 -9.0979,2.86106 -9.80912,7.37768 -0.6747,4.28469 2.06604,9.85765 6.83506,10.27403 m 1.7574,-13.07181 c 5.4489,-0.576 6.27431,8.1358 0.81111,8.72243 -5.77644,0.62026 -6.58177,-8.11241 -0.81111,-8.72243 m 22.03509,12.57509 c 5.44832,-0.43053 6.13197,8.29006 0.67592,8.73035 -5.82703,0.47024 -6.53245,-8.26757 -0.67592,-8.73035 m -21.76472,11.1183 c 7.90976,0 7.90912,12.21397 0,12.21397 -7.87812,0 -7.87773,-12.21397 0,-12.21397 m 21.08879,14.69861 c 1.87359,-0.27672 3.72007,0.43135 4.68286,2.12228 1.40268,2.46348 -0.0475,5.96407 -2.92545,6.44484 -5.61172,0.93744 -7.40345,-7.73321 -1.75741,-8.56712 m -21.22398,12.71747 c 5.39954,-0.29164 6.08522,8.28707 0.67593,8.72358 -5.88107,0.47458 -6.55435,-8.40607 -0.67593,-8.72358 z"
           id="path6" /></g></g><g
       id="g91"><rect
         style="fill:none;fill-opacity:1;stroke:none;stroke-width:0.321101;stroke-dasharray:none;stroke-opacity:1"
         id="rect47-2-9"
         width="9.3741941"
         height="11.322475"
         x="-189.42534"
         y="469.41003" /><g
         id="g51"
         transform="matrix(0.89834635,0,0,0.87347243,-33.463793,59.037248)"
         style="fill:#ffffff"><path
           style="fill:#ffffff"
           d="m -168.65208,479.58958 c 0.0145,-0.002 0.0361,-0.002 0.0478,1.4e-4 0.0118,0.002 -1.3e-4,0.004 -0.0264,0.004 -0.0263,-8e-5 -0.0359,-0.002 -0.0214,-0.004 z m 0.28696,2.6e-4 c 0.009,-0.003 0.0222,-0.002 0.0287,3.8e-4 0.006,0.003 -0.001,0.005 -0.0169,0.005 -0.0158,-2.1e-4 -0.0211,-0.003 -0.0118,-0.005 z m -0.53993,-0.0102 c 0.007,-0.003 0.0151,-0.003 0.0183,8.2e-4 0.003,0.003 -0.002,0.006 -0.0126,0.005 -0.0111,-5e-4 -0.0134,-0.003 -0.006,-0.006 z m 0.51595,-0.75469 c 0.0119,-0.002 0.0291,-0.002 0.0383,2.1e-4 0.009,0.003 -5.9e-4,0.005 -0.0216,0.004 -0.021,-1.2e-4 -0.0285,-0.002 -0.0166,-0.005 z m -0.41135,-0.01 c 0.007,-0.003 0.0173,-0.003 0.0239,0 0.007,0.003 10e-4,0.005 -0.0119,0.005 -0.0131,0 -0.0185,-0.002 -0.012,-0.005 z m 0.81351,-2.1e-4 c 0.007,-0.003 0.0152,-0.003 0.0183,8.1e-4 0.003,0.003 -0.002,0.006 -0.0126,0.005 -0.0111,-4.9e-4 -0.0134,-0.003 -0.006,-0.006 z m -0.99462,-0.0103 c 0.007,-0.003 0.0152,-0.003 0.0183,8.2e-4 0.003,0.003 -0.002,0.006 -0.0125,0.005 -0.0111,-5e-4 -0.0134,-0.003 -0.006,-0.006 z m 4.36997,-0.81623 c 0.007,-0.003 0.0173,-0.003 0.0239,0 0.007,0.003 0.001,0.005 -0.0119,0.005 -0.0131,0 -0.0185,-0.002 -0.012,-0.005 z m -0.74596,-0.29971 c 0.007,-0.003 0.0173,-0.003 0.0239,0 0.007,0.003 0.001,0.005 -0.0119,0.005 -0.0132,0 -0.0185,-0.002 -0.012,-0.005 z m 0.62223,-0.0622 c 0.007,-0.003 0.0152,-0.003 0.0183,8.1e-4 0.003,0.003 -0.002,0.006 -0.0125,0.005 -0.0111,-5e-4 -0.0134,-0.003 -0.006,-0.006 z m 0.32517,0 c 0.007,-0.003 0.0151,-0.003 0.0183,8.1e-4 0.003,0.003 -0.002,0.006 -0.0126,0.005 -0.0111,-5e-4 -0.0134,-0.003 -0.006,-0.006 z m -8.93135,-0.0317 -0.0232,-0.0284 0.0263,0.025 c 0.0246,0.0234 0.0307,0.0318 0.0232,0.0318 -0.002,0 -0.0136,-0.0128 -0.0263,-0.0284 z m 9.03146,-0.39258 c 0.0251,-0.002 0.0639,-0.002 0.0861,6e-5 0.0222,0.002 0.002,0.004 -0.0457,0.004 -0.0473,-3e-5 -0.0655,-0.002 -0.0403,-0.004 z m -0.84667,-0.62966 c 0.007,-0.003 0.0173,-0.003 0.0239,0 0.007,0.003 0.001,0.005 -0.012,0.005 -0.0131,0 -0.0185,-0.002 -0.012,-0.005 z m -2.5242,-0.0932 c 0.007,-0.003 0.0152,-0.003 0.0183,8.2e-4 0.003,0.003 -0.002,0.006 -0.0126,0.005 -0.0111,-5e-4 -0.0134,-0.003 -0.006,-0.006 z m 0.315,2.2e-4 c 0.007,-0.003 0.0173,-0.003 0.0239,0 0.007,0.003 10e-4,0.005 -0.0119,0.005 -0.0131,0 -0.0185,-0.002 -0.012,-0.005 z m -5.35445,-0.15593 c -0.0119,-0.0164 -0.0116,-0.0168 0.004,-0.004 0.0159,0.0135 0.021,0.022 0.0131,0.022 -0.002,0 -0.01,-0.008 -0.0167,-0.0181 z m 6.62311,-0.0155 -0.0182,-0.0233 0.0215,0.0197 c 0.0202,0.0185 0.0259,0.0268 0.0182,0.0268 -0.002,0 -0.0115,-0.0105 -0.0215,-0.0233 z m -4.40313,-0.0129 c 0.0123,-0.0142 0.0246,-0.0258 0.0272,-0.0258 0.003,0 -0.005,0.0116 -0.0177,0.0258 -0.0123,0.0142 -0.0246,0.0258 -0.0272,0.0258 -0.003,0 0.005,-0.0116 0.0177,-0.0258 z m -2.2627,-0.0181 -0.0182,-0.0233 0.0215,0.0197 c 0.0202,0.0185 0.0259,0.0268 0.0182,0.0268 -0.002,0 -0.0115,-0.0105 -0.0215,-0.0233 z m 8.48861,-0.0117 c 0,-0.002 0.008,-0.0103 0.0167,-0.0181 0.0152,-0.0129 0.0155,-0.0125 0.004,0.004 -0.0125,0.0172 -0.0204,0.0227 -0.0204,0.0142 z m 0.0574,-0.062 c 0,-0.002 0.008,-0.0103 0.0167,-0.0181 0.0152,-0.0129 0.0155,-0.0125 0.004,0.004 -0.0125,0.0172 -0.0204,0.0227 -0.0204,0.0142 z m -0.97309,-0.1169 c 0.009,-0.003 0.0243,-0.003 0.0335,0 0.009,0.003 0.002,0.005 -0.0167,0.005 -0.0184,0 -0.0259,-0.002 -0.0167,-0.005 z m 0.54751,-0.16857 c 0.01,-0.0114 0.0195,-0.0207 0.0221,-0.0207 0.003,0 -0.003,0.009 -0.0125,0.0207 -0.01,0.0114 -0.0195,0.0207 -0.0221,0.0207 -0.003,0 0.003,-0.009 0.0125,-0.0207 z m -7.76011,-0.27473 c 4.5e-4,-0.012 0.003,-0.0145 0.006,-0.006 0.003,0.007 0.002,0.0164 -7.5e-4,0.0198 -0.003,0.003 -0.005,-0.003 -0.005,-0.0136 z m 0,-0.10335 c 4.5e-4,-0.012 0.003,-0.0145 0.006,-0.006 0.003,0.007 0.002,0.0164 -7.5e-4,0.0198 -0.003,0.003 -0.005,-0.003 -0.005,-0.0136 z m 7.76877,-0.15158 -0.0182,-0.0233 0.0215,0.0197 c 0.0118,0.0108 0.0215,0.0213 0.0215,0.0233 0,0.008 -0.008,0.002 -0.0248,-0.0197 z m -7.65477,-0.15634 c 0,-0.002 0.008,-0.0103 0.0167,-0.0181 0.0152,-0.0129 0.0155,-0.0125 0.004,0.004 -0.0125,0.0172 -0.0204,0.0227 -0.0204,0.0142 z m 0.66766,-0.17885 c 0.007,-0.003 0.0152,-0.003 0.0183,8.2e-4 0.003,0.003 -0.002,0.006 -0.0126,0.005 -0.0111,-5e-4 -0.0134,-0.003 -0.006,-0.006 z m 0.45315,-0.6492 c 2e-4,-0.017 0.002,-0.0228 0.005,-0.0127 0.002,0.0101 0.002,0.024 -3.5e-4,0.031 -0.003,0.007 -0.005,-0.001 -0.004,-0.0183 z m 5.6777,-0.0336 c -0.0119,-0.0164 -0.0116,-0.0167 0.004,-0.004 0.009,0.008 0.0167,0.0159 0.0167,0.0181 0,0.008 -0.008,0.003 -0.0204,-0.0142 z m -0.61966,-0.13263 c 4.6e-4,-0.012 0.003,-0.0145 0.006,-0.006 0.003,0.007 0.002,0.0164 -7.5e-4,0.0198 -0.003,0.003 -0.005,-0.003 -0.005,-0.0136 z m 0.54588,-0.087 c 0,-0.0142 0.002,-0.02 0.005,-0.0129 0.003,0.007 0.003,0.0187 0,0.0258 -0.003,0.007 -0.005,10e-4 -0.005,-0.0129 z m 0.51314,-0.41012 c 0.007,-0.003 0.0151,-0.003 0.0183,8.2e-4 0.003,0.003 -0.002,0.006 -0.0126,0.005 -0.0111,-5e-4 -0.0134,-0.003 -0.006,-0.006 z m -0.83025,-0.15313 c 0.0124,-0.0142 0.0246,-0.0258 0.0272,-0.0258 0.003,0 -0.005,0.0116 -0.0177,0.0258 -0.0124,0.0142 -0.0246,0.0258 -0.0273,0.0258 -0.003,0 0.005,-0.0116 0.0177,-0.0258 z m -4.2821,-0.24023 c 0.0513,-0.002 0.1352,-0.002 0.18649,0 0.0513,0.002 0.009,0.003 -0.0933,0.003 -0.10257,0 -0.14453,-0.002 -0.0932,-0.003 z m 1.73148,0 c 0.0463,-0.002 0.11944,-0.002 0.16258,2e-5 0.0431,0.002 0.005,0.003 -0.0841,0.003 -0.0894,-10e-6 -0.12471,-0.002 -0.0784,-0.003 z m 1.73104,-10e-6 c 0.0516,-0.002 0.13333,-0.002 0.18171,2e-5 0.0484,0.002 0.006,0.003 -0.0937,0.003 -0.0999,-1e-5 -0.13953,-0.002 -0.088,-0.003 z m -5.1505,-0.0818 c 0.007,-0.003 0.0173,-0.003 0.0239,0 0.007,0.003 10e-4,0.005 -0.012,0.005 -0.0131,0 -0.0185,-0.002 -0.0119,-0.005 z m 0.16258,0 c 0.007,-0.003 0.0173,-0.003 0.0239,0 0.007,0.003 0.001,0.005 -0.012,0.005 -0.0131,0 -0.0185,-0.002 -0.0119,-0.005 z"
           id="path57" /><g
           id="g58"
           style="fill:#ffffff"><path
             style="fill:#ffffff"
             d="m -168.53745,479.58936 c 0.0302,-0.002 0.0797,-0.002 0.10998,0 0.0302,0.002 0.006,0.004 -0.055,0.004 -0.0605,0 -0.0852,-0.002 -0.055,-0.004 z m 0.39749,-0.01 c 0.007,-0.003 0.0152,-0.003 0.0183,8.2e-4 0.003,0.003 -0.002,0.006 -0.0125,0.005 -0.0111,-5e-4 -0.0134,-0.003 -0.006,-0.006 z m -0.37333,-0.75496 c 0.0225,-0.002 0.0569,-0.002 0.0765,7e-5 0.0196,0.002 0.001,0.004 -0.0409,0.004 -0.0421,-4e-5 -0.0581,-0.002 -0.0356,-0.004 z m 0.20059,1.1e-4 c 0.0171,-0.002 0.0451,-0.002 0.0622,0 0.0171,0.002 0.003,0.004 -0.0311,0.004 -0.0342,0 -0.0482,-0.002 -0.0311,-0.004 z m -0.51584,-0.01 c 0.007,-0.003 0.0152,-0.003 0.0183,8.1e-4 0.003,0.003 -0.002,0.006 -0.0125,0.005 -0.0111,-4.9e-4 -0.0134,-0.003 -0.006,-0.006 z m 0.87029,0 c 0.007,-0.003 0.0152,-0.003 0.0183,8.1e-4 0.003,0.003 -0.002,0.006 -0.0126,0.005 -0.0111,-4.9e-4 -0.0134,-0.003 -0.006,-0.006 z m 3.44469,-0.54459 c 0,-0.002 0.008,-0.0103 0.0167,-0.0181 0.0152,-0.0129 0.0155,-0.0125 0.004,0.004 -0.0125,0.0172 -0.0204,0.0227 -0.0204,0.0142 z m -3.07709,-1.7917 c 0.0408,-0.002 0.10747,-0.002 0.14823,0 0.0408,0.002 0.007,0.004 -0.0741,0.004 -0.0815,0 -0.11489,-0.002 -0.0741,-0.004 z m 3.34487,-0.24425 c 0,-0.002 0.008,-0.0103 0.0167,-0.0181 0.0152,-0.0129 0.0155,-0.0125 0.004,0.004 -0.0125,0.0172 -0.0204,0.0227 -0.0204,0.0142 z m -0.99204,-0.14795 c 0.009,-0.003 0.0222,-0.002 0.0287,3.8e-4 0.006,0.003 -10e-4,0.005 -0.0169,0.005 -0.0158,-2.1e-4 -0.0211,-0.003 -0.0118,-0.005 z m 0.1052,0 c 0.009,-0.003 0.0222,-0.002 0.0287,3.8e-4 0.006,0.003 -0.001,0.005 -0.0169,0.005 -0.0158,-2.1e-4 -0.0211,-0.003 -0.0118,-0.005 z m -6.20458,-0.24087 c 0.01,-0.0114 0.0195,-0.0207 0.0221,-0.0207 0.003,0 -0.003,0.009 -0.0125,0.0207 -0.01,0.0114 -0.0195,0.0207 -0.0221,0.0207 -0.003,0 0.003,-0.009 0.0125,-0.0207 z m 0.18038,-0.62009 c 0,-0.054 0.002,-0.0761 0.004,-0.0491 0.002,0.027 0.002,0.0712 0,0.0982 -0.002,0.027 -0.004,0.005 -0.004,-0.0491 z m 5.04689,-1.01884 c 4.6e-4,-0.012 0.003,-0.0145 0.006,-0.006 0.003,0.007 0.002,0.0164 -7.5e-4,0.0198 -0.003,0.003 -0.005,-0.003 -0.005,-0.0136 z m 0,-0.062 c 4.6e-4,-0.012 0.003,-0.0145 0.006,-0.006 0.003,0.007 0.002,0.0164 -7.5e-4,0.0198 -0.003,0.003 -0.005,-0.003 -0.005,-0.0136 z m 0.54513,-0.031 c 4.6e-4,-0.012 0.003,-0.0145 0.006,-0.006 0.003,0.007 0.002,0.0164 -7.6e-4,0.0198 -0.003,0.003 -0.005,-0.003 -0.005,-0.0136 z m -4.75312,-0.6821 c 4.6e-4,-0.012 0.003,-0.0145 0.006,-0.006 0.003,0.007 0.002,0.0164 -7.5e-4,0.0198 -0.003,0.003 -0.005,-0.003 -0.005,-0.0136 z m -1.47615,-0.16679 c 0.017,-0.002 0.0471,-0.002 0.0669,-8e-5 0.0198,0.002 0.006,0.004 -0.0309,0.004 -0.0368,5e-5 -0.053,-0.002 -0.0361,-0.004 z"
             id="path56" /><path
             style="fill:#ffffff"
             d="m -168.16865,479.5796 c 0.007,-0.003 0.0152,-0.003 0.0183,8.2e-4 0.003,0.003 -0.002,0.006 -0.0126,0.005 -0.0112,-5e-4 -0.0134,-0.003 -0.006,-0.006 z m -0.41644,-0.75454 c 0.009,-0.003 0.0222,-0.002 0.0287,3.8e-4 0.006,0.003 -0.001,0.005 -0.0169,0.005 -0.0158,-2.1e-4 -0.0211,-0.003 -0.0118,-0.005 z m 0.3777,-1.5e-4 c 0.0119,-0.002 0.0291,-0.002 0.0383,2.1e-4 0.009,0.003 -5.9e-4,0.005 -0.0216,0.004 -0.021,-1.2e-4 -0.0285,-0.002 -0.0166,-0.005 z m -0.64984,-0.0101 c 0.007,-0.003 0.0151,-0.003 0.0183,8.1e-4 0.003,0.003 -0.002,0.006 -0.0126,0.005 -0.0111,-4.9e-4 -0.0134,-0.003 -0.006,-0.006 z m 3.57619,-2.72817 c 0.007,-0.003 0.0173,-0.003 0.0239,0 0.007,0.003 0.001,0.005 -0.012,0.005 -0.0131,0 -0.0185,-0.002 -0.012,-0.005 z m 1.28467,-0.55727 c 4.6e-4,-0.012 0.003,-0.0145 0.006,-0.006 0.003,0.007 0.002,0.0164 -7.6e-4,0.0198 -0.003,0.003 -0.005,-0.003 -0.005,-0.0136 z m -7.16239,-0.19033 c 0,-0.0142 0.002,-0.02 0.005,-0.0129 0.003,0.007 0.003,0.0187 0,0.0258 -0.003,0.007 -0.005,10e-4 -0.005,-0.0129 z m -0.60581,-0.70983 c 0.007,-0.003 0.0152,-0.003 0.0183,8.2e-4 0.003,0.003 -0.002,0.006 -0.0126,0.005 -0.0111,-5e-4 -0.0134,-0.003 -0.006,-0.006 z m 5.65464,-0.45369 c 4.6e-4,-0.012 0.003,-0.0145 0.006,-0.006 0.003,0.007 0.002,0.0164 -7.5e-4,0.0198 -0.003,0.003 -0.005,-0.003 -0.005,-0.0136 z m -5.7746,-0.42486 c 0.009,-0.003 0.0222,-0.002 0.0287,3.8e-4 0.006,0.003 -0.001,0.005 -0.0169,0.005 -0.0158,-2.1e-4 -0.0211,-0.003 -0.0118,-0.005 z m 0.0574,0 c 0.009,-0.003 0.0222,-0.002 0.0287,3.8e-4 0.006,0.003 -0.001,0.005 -0.0169,0.005 -0.0158,-2.1e-4 -0.0211,-0.003 -0.0118,-0.005 z"
             id="path55" /><path
             style="fill:#ffffff"
             d="m -168.8387,479.57982 c 0.007,-0.003 0.0173,-0.003 0.0239,0 0.007,0.003 0.001,0.005 -0.012,0.005 -0.0131,0 -0.0185,-0.002 -0.0119,-0.005 z m 4.68856,-0.54607 c 0.0178,-0.0199 0.0346,-0.0362 0.0372,-0.0362 0.003,0 -0.01,0.0163 -0.0277,0.0362 -0.0178,0.0199 -0.0346,0.0362 -0.0372,0.0362 -0.003,0 0.01,-0.0163 0.0277,-0.0362 z m -4.48276,-0.20869 c 0.009,-0.003 0.0222,-0.002 0.0287,3.8e-4 0.006,0.003 -0.001,0.005 -0.0169,0.005 -0.0158,-2.1e-4 -0.0211,-0.003 -0.0118,-0.005 z m 0.48278,3.2e-4 c 0.007,-0.003 0.0173,-0.003 0.0239,0 0.007,0.003 10e-4,0.005 -0.012,0.005 -0.0131,0 -0.0185,-0.002 -0.0119,-0.005 z m 0.23968,-0.0106 c 0.007,-0.003 0.0152,-0.003 0.0183,8.1e-4 0.003,0.003 -0.002,0.006 -0.0126,0.005 -0.0111,-4.9e-4 -0.0134,-0.003 -0.006,-0.006 z m -4.24624,-2.26332 c 0.007,-0.003 0.0152,-0.003 0.0183,8.1e-4 0.003,0.003 -0.002,0.006 -0.0126,0.005 -0.0111,-4.9e-4 -0.0134,-0.003 -0.006,-0.006 z m 0.13389,0 c 0.007,-0.003 0.0151,-0.003 0.0183,8.1e-4 0.003,0.003 -0.002,0.006 -0.0126,0.005 -0.0111,-4.9e-4 -0.0134,-0.003 -0.006,-0.006 z m 1.56142,-0.35035 c 4.6e-4,-0.012 0.003,-0.0145 0.006,-0.006 0.003,0.007 0.002,0.0164 -7.6e-4,0.0198 -0.003,0.003 -0.005,-0.003 -0.005,-0.0136 z m -1.82863,-0.23943 c -0.0119,-0.0164 -0.0115,-0.0168 0.004,-0.004 0.0159,0.0135 0.021,0.022 0.0131,0.022 -0.002,0 -0.01,-0.008 -0.0167,-0.0181 z m -0.6843,-0.33329 c 0,-0.0369 0.002,-0.0521 0.004,-0.0336 0.002,0.0185 0.002,0.0487 0,0.0672 -0.002,0.0185 -0.004,0.003 -0.004,-0.0336 z m 8.97978,-0.0413 c 0,-0.0256 0.002,-0.0361 0.004,-0.0233 0.002,0.0128 0.002,0.0337 0,0.0465 -0.002,0.0128 -0.004,0.002 -0.004,-0.0232 z m -0.20913,-0.571 -0.0182,-0.0233 0.0215,0.0197 c 0.0118,0.0108 0.0215,0.0213 0.0215,0.0233 0,0.008 -0.008,0.002 -0.0248,-0.0197 z m -1.67823,-0.24287 -0.0232,-0.0284 0.0263,0.0251 c 0.0246,0.0234 0.0307,0.0318 0.0232,0.0318 -0.002,0 -0.0136,-0.0128 -0.0263,-0.0284 z m -6.10265,-0.144 c 0.007,-0.003 0.0152,-0.003 0.0183,8.2e-4 0.003,0.003 -0.002,0.006 -0.0126,0.005 -0.0111,-5e-4 -0.0134,-0.003 -0.006,-0.006 z m 0.67002,-0.71379 c -0.0119,-0.0164 -0.0116,-0.0168 0.004,-0.004 0.009,0.008 0.0167,0.0159 0.0167,0.0181 0,0.009 -0.008,0.003 -0.0204,-0.0142 z m -1.468,-0.1421 c 2e-5,-0.0625 0.002,-0.0868 0.004,-0.0539 0.002,0.0329 0.002,0.084 -4e-5,0.11368 -0.002,0.0296 -0.003,0.003 -0.003,-0.0598 z m 8.62642,-0.0568 c 0,-0.0654 0.002,-0.0921 0.003,-0.0594 0.002,0.0327 0.002,0.0862 0,0.11885 -0.002,0.0327 -0.003,0.006 -0.003,-0.0594 z m -7.77166,0.0345 c 0.007,-0.003 0.0173,-0.003 0.0239,0 0.007,0.003 0.001,0.005 -0.012,0.005 -0.0131,0 -0.0185,-0.002 -0.012,-0.005 z m 0.14345,0 c 0.007,-0.003 0.0173,-0.003 0.0239,0 0.007,0.003 0.001,0.005 -0.012,0.005 -0.0131,0 -0.0185,-0.002 -0.012,-0.005 z"
             id="path54" /><path
             style="fill:#ffffff"
             d="m -168.80045,479.57982 c 0.007,-0.003 0.0173,-0.003 0.0239,0 0.007,0.003 10e-4,0.005 -0.0119,0.005 -0.0131,0 -0.0185,-0.002 -0.012,-0.005 z m 0.58398,-2.2e-4 c 0.007,-0.003 0.0151,-0.003 0.0183,8.2e-4 0.003,0.003 -0.002,0.006 -0.0126,0.005 -0.0111,-5e-4 -0.0134,-0.003 -0.006,-0.006 z m -0.76509,-0.0103 c 0.007,-0.003 0.0152,-0.003 0.0183,8.1e-4 0.003,0.003 -0.002,0.006 -0.0125,0.005 -0.0111,-4.9e-4 -0.0134,-0.003 -0.006,-0.006 z m 0.30084,-0.74421 c 0.009,-0.003 0.0222,-0.002 0.0287,3.8e-4 0.006,0.003 -0.001,0.005 -0.0169,0.005 -0.0158,-2.1e-4 -0.0211,-0.003 -0.0118,-0.005 z m 0.56885,3.2e-4 c 0.007,-0.003 0.0173,-0.003 0.0239,0 0.007,0.003 0.001,0.005 -0.0119,0.005 -0.0131,0 -0.0185,-0.002 -0.012,-0.005 z m 3.5192,-1.20979 c 0.017,-0.002 0.0471,-0.002 0.0669,-8e-5 0.0199,0.002 0.006,0.004 -0.0309,0.004 -0.0368,5e-5 -0.053,-0.002 -0.0361,-0.004 z m -7.51662,-1.06451 c 0.0172,-0.002 0.043,-0.002 0.0574,1e-4 0.0144,0.002 3.1e-4,0.004 -0.0312,0.004 -0.0316,-5e-5 -0.0433,-0.002 -0.0261,-0.004 z m 0.89642,-0.38524 c 0.0205,-0.0227 0.0395,-0.0413 0.0421,-0.0413 0.003,0 -0.012,0.0186 -0.0326,0.0413 -0.0205,0.0227 -0.0395,0.0413 -0.0421,0.0413 -0.003,0 0.012,-0.0186 0.0326,-0.0413 z m 0.59003,-0.55291 c 1.9e-4,-0.017 0.002,-0.0228 0.005,-0.0127 0.002,0.0101 0.002,0.024 -3.5e-4,0.031 -0.003,0.007 -0.005,-10e-4 -0.004,-0.0183 z m -1.14698,-0.57066 c 0.0145,-0.002 0.0361,-0.002 0.0478,1.4e-4 0.0118,0.002 -1.3e-4,0.004 -0.0264,0.004 -0.0263,-8e-5 -0.0359,-0.002 -0.0214,-0.004 z m -0.0527,-0.41282 c 0.007,-0.003 0.0173,-0.003 0.0239,0 0.007,0.003 0.001,0.005 -0.012,0.005 -0.0131,0 -0.0185,-0.002 -0.012,-0.005 z m 1.18903,-0.29889 c 4.6e-4,-0.012 0.003,-0.0145 0.006,-0.006 0.003,0.007 0.002,0.0164 -7.5e-4,0.0198 -0.003,0.003 -0.005,-0.003 -0.005,-0.0136 z m -2.08741,-0.36275 c 0.007,-0.003 0.0152,-0.003 0.0183,8.1e-4 0.003,0.003 -0.002,0.006 -0.0126,0.005 -0.0112,-4.9e-4 -0.0134,-0.003 -0.006,-0.006 z m 1.83678,-0.39342 c -0.0119,-0.0164 -0.0115,-0.0168 0.004,-0.004 0.0159,0.0135 0.021,0.022 0.0131,0.022 -0.002,0 -0.01,-0.008 -0.0167,-0.0181 z"
             id="path53" /><path
             style="fill:#ffffff"
             d="m -168.76219,479.57982 c 0.007,-0.003 0.0173,-0.003 0.0239,0 0.007,0.003 0.001,0.005 -0.0119,0.005 -0.0131,0 -0.0185,-0.002 -0.012,-0.005 z m 0.50687,0 c 0.007,-0.003 0.0173,-0.003 0.0239,0 0.007,0.003 0.001,0.005 -0.012,0.005 -0.0131,0 -0.0185,-0.002 -0.012,-0.005 z m -0.46862,-0.75444 c 0.007,-0.003 0.0173,-0.003 0.0239,0 0.007,0.003 0.001,0.005 -0.012,0.005 -0.0132,0 -0.0185,-0.002 -0.012,-0.005 z m 0.65033,0 c 0.007,-0.003 0.0173,-0.003 0.0239,0 0.007,0.003 0.001,0.005 -0.0119,0.005 -0.0132,0 -0.0185,-0.002 -0.012,-0.005 z m -0.85057,-0.0106 c 0.007,-0.003 0.0152,-0.003 0.0183,8.1e-4 0.003,0.003 -0.002,0.006 -0.0126,0.005 -0.0111,-4.9e-4 -0.0134,-0.003 -0.006,-0.006 z m 4.46876,-0.68107 c 4.6e-4,-0.012 0.003,-0.0145 0.006,-0.006 0.003,0.007 0.002,0.0164 -7.6e-4,0.0198 -0.003,0.003 -0.005,-0.003 -0.005,-0.0136 z m 0.4127,-0.242 c 0,-0.0199 0.002,-0.028 0.004,-0.0181 0.002,0.01 0.002,0.0262 0,0.0362 -0.002,0.01 -0.004,0.002 -0.004,-0.0181 z m -1.37863,-0.2644 c 4.6e-4,-0.012 0.003,-0.0145 0.006,-0.006 0.003,0.007 0.002,0.0164 -7.5e-4,0.0198 -0.003,0.003 -0.005,-0.003 -0.005,-0.0136 z m 0.58083,-0.001 c 0.007,-0.003 0.0152,-0.003 0.0183,8.1e-4 0.003,0.003 -0.002,0.006 -0.0126,0.005 -0.0111,-5e-4 -0.0134,-0.003 -0.006,-0.006 z m 1.24658,-0.0136 c 0,-0.0142 0.002,-0.02 0.005,-0.0129 0.003,0.007 0.003,0.0187 0,0.0258 -0.003,0.007 -0.005,0.001 -0.005,-0.0129 z m -1.0605,0.003 c 0.009,-0.003 0.0222,-0.002 0.0287,3.8e-4 0.006,0.003 -0.001,0.005 -0.0169,0.005 -0.0158,-2.1e-4 -0.0211,-0.003 -0.0118,-0.005 z m 0.17196,4e-5 c 0.009,-0.003 0.0243,-0.003 0.0335,0 0.009,0.003 0.002,0.005 -0.0167,0.005 -0.0184,0 -0.0259,-0.002 -0.0167,-0.005 z m 0.88778,-0.11259 c 4.6e-4,-0.012 0.003,-0.0145 0.006,-0.006 0.003,0.007 0.002,0.0164 -7.5e-4,0.0198 -0.003,0.003 -0.005,-0.003 -0.005,-0.0136 z m -0.81545,-0.29041 c 0.007,-0.003 0.0151,-0.003 0.0183,8.2e-4 0.003,0.003 -0.002,0.006 -0.0126,0.005 -0.0111,-5e-4 -0.0134,-0.003 -0.006,-0.006 z m 0.26778,0 c 0.007,-0.003 0.0152,-0.003 0.0183,8.2e-4 0.003,0.003 -0.002,0.006 -0.0126,0.005 -0.0111,-5e-4 -0.0134,-0.003 -0.006,-0.006 z m -1.10938,-0.65109 c 0.007,-0.003 0.0151,-0.003 0.0183,8.2e-4 0.003,0.003 -0.002,0.006 -0.0126,0.005 -0.0111,-5e-4 -0.0134,-0.003 -0.006,-0.006 z m 0.20084,0 c 0.007,-0.003 0.0151,-0.003 0.0183,8.2e-4 0.003,0.003 -0.002,0.006 -0.0126,0.005 -0.0111,-5e-4 -0.0134,-0.003 -0.006,-0.006 z m -4.30363,-0.093 c 0.007,-0.003 0.0151,-0.003 0.0183,8.1e-4 0.003,0.003 -0.002,0.006 -0.0126,0.005 -0.0111,-4.9e-4 -0.0134,-0.003 -0.006,-0.006 z m 0.3156,0 c 0.007,-0.003 0.0152,-0.003 0.0183,8.1e-4 0.003,0.003 -0.002,0.006 -0.0126,0.005 -0.0111,-4.9e-4 -0.0134,-0.003 -0.006,-0.006 z m 4.74534,-0.1932 c 0,-0.002 0.008,-0.0103 0.0167,-0.0181 0.0152,-0.0129 0.0155,-0.0125 0.004,0.004 -0.0125,0.0172 -0.0204,0.0227 -0.0204,0.0142 z m -1.84228,-0.19763 c 2e-5,-0.0568 0.002,-0.0788 0.004,-0.0487 0.002,0.03 0.002,0.0765 -5e-5,0.10334 -0.002,0.0268 -0.004,0.002 -0.004,-0.0546 z m -5.81578,0.0187 c 0.009,-0.003 0.0243,-0.003 0.0335,0 0.009,0.003 0.002,0.005 -0.0167,0.005 -0.0184,0 -0.0259,-0.002 -0.0167,-0.005 z m 1.32771,-0.4433 c 4.6e-4,-0.012 0.003,-0.0145 0.006,-0.006 0.003,0.007 0.002,0.0164 -7.6e-4,0.0198 -0.003,0.003 -0.005,-0.003 -0.005,-0.0136 z m -0.006,-0.7019 c 0,-0.33537 0.001,-0.47107 0.003,-0.30156 0.001,0.16951 0.001,0.4439 -1e-5,0.60976 -0.001,0.16585 -0.003,0.0272 -0.003,-0.3082 z m 6.00025,0.43147 c -0.0119,-0.0164 -0.0116,-0.0168 0.004,-0.004 0.009,0.008 0.0167,0.0159 0.0167,0.0181 0,0.008 -0.008,0.003 -0.0203,-0.0142 z m -7.19761,-0.34046 c 0.009,-0.003 0.0222,-0.002 0.0287,3.9e-4 0.006,0.003 -0.001,0.005 -0.0169,0.005 -0.0158,-2.1e-4 -0.0211,-0.003 -0.0118,-0.005 z m 0.13389,0 c 0.009,-0.003 0.0222,-0.002 0.0287,3.9e-4 0.006,0.003 -0.001,0.005 -0.0169,0.005 -0.0158,-2.1e-4 -0.0211,-0.003 -0.0118,-0.005 z m -1.04022,-0.0859 c 0.01,-0.0114 0.0195,-0.0207 0.0221,-0.0207 0.003,0 -0.003,0.009 -0.0125,0.0207 -0.01,0.0114 -0.0195,0.0207 -0.0221,0.0207 -0.003,0 0.003,-0.009 0.0125,-0.0207 z m 0.81529,-0.32785 c 0.0171,-0.002 0.0451,-0.002 0.0622,0 0.0171,0.002 0.003,0.004 -0.0311,0.004 -0.0342,0 -0.0482,-0.002 -0.0311,-0.004 z m 6.43302,-0.24314 -0.0182,-0.0233 0.0215,0.0197 c 0.0118,0.0108 0.0215,0.0213 0.0215,0.0232 0,0.008 -0.008,0.002 -0.0248,-0.0197 z m -0.3912,-0.7932 c 0.0205,-0.0227 0.0395,-0.0413 0.0421,-0.0413 0.003,0 -0.012,0.0186 -0.0326,0.0413 -0.0206,0.0227 -0.0395,0.0413 -0.0421,0.0413 -0.003,0 0.012,-0.0186 0.0326,-0.0413 z m -6.03166,-0.3171 c 0.007,-0.003 0.0152,-0.003 0.0183,8.1e-4 0.003,0.003 -0.002,0.006 -0.0126,0.005 -0.0111,-5e-4 -0.0134,-0.003 -0.006,-0.006 z m 6.78957,-0.0101 c 0.007,-0.003 0.0173,-0.003 0.0239,0 0.007,0.003 0.001,0.005 -0.012,0.005 -0.0131,0 -0.0185,-0.002 -0.012,-0.005 z m 0.15302,0 c 0.007,-0.003 0.0173,-0.003 0.0239,0 0.007,0.003 0.001,0.005 -0.012,0.005 -0.0132,0 -0.0185,-0.002 -0.012,-0.005 z"
             id="path52" /></g><path
           style="fill:#ffffff"
           d="m -168.78849,479.58053 c -0.58306,-0.0345 -1.02359,-0.10378 -1.51584,-0.23847 -1.04037,-0.28467 -2.00385,-0.81709 -2.82604,-1.56168 -0.19107,-0.17303 -0.2351,-0.2197 -0.24151,-0.25594 -0.0106,-0.06 0.0204,-0.10061 0.0767,-0.10049 0.0271,6e-5 0.0715,0.0218 0.18394,0.0902 0.35463,0.21563 0.87689,0.47688 1.27675,0.63865 0.91383,0.36973 1.80471,0.57731 2.83561,0.66071 0.22227,0.018 1.00238,0.018 1.21458,2e-5 1.07844,-0.0913 2.00509,-0.32054 2.95633,-0.7312 0.20533,-0.0886 0.22075,-0.093 0.27353,-0.0777 0.0581,0.0169 0.0983,0.0708 0.0983,0.13168 0,0.0669 -0.0261,0.10628 -0.11783,0.1777 -0.57436,0.44737 -1.34551,0.81572 -2.16333,1.03335 -0.39814,0.10595 -0.79485,0.17649 -1.20207,0.21372 -0.16415,0.015 -0.71176,0.0275 -0.84908,0.0194 z m 4.42828,-0.44792 c -0.005,-0.011 -0.01,-0.025 -0.01,-0.0312 0,-0.006 0.032,-0.10093 0.0712,-0.21056 0.17837,-0.49923 0.2565,-0.80339 0.25664,-0.99907 8e-5,-0.10367 -0.0154,-0.15129 -0.0615,-0.18877 -0.0771,-0.0628 -0.19989,-0.0848 -0.46724,-0.0838 -0.20809,7.4e-4 -0.31766,0.009 -0.62307,0.0458 -0.19672,0.0238 -0.21853,0.0203 -0.21853,-0.035 0,-0.0474 0.0258,-0.0797 0.10791,-0.13492 0.19943,-0.13429 0.44428,-0.22187 0.74325,-0.26585 0.13219,-0.0195 0.47711,-0.0167 0.60193,0.005 0.1911,0.0329 0.29841,0.0746 0.33679,0.13082 0.0268,0.0393 0.0378,0.16385 0.0266,0.30159 -0.0444,0.54741 -0.30539,1.14807 -0.62395,1.43615 -0.0456,0.0412 -0.0622,0.0502 -0.0929,0.0502 -0.0272,0 -0.0401,-0.005 -0.0473,-0.02 z m -0.91844,-2.57026 c -0.11835,-0.009 -0.27696,-0.0378 -0.40328,-0.0721 -0.24447,-0.0664 -0.38649,-0.14018 -0.42626,-0.22146 -0.0195,-0.0399 -0.0216,-0.0584 -0.0216,-0.19241 0,-0.13445 0.002,-0.15015 0.0191,-0.1689 0.0301,-0.0325 0.0736,-0.0254 0.21762,0.0359 0.26411,0.11236 0.49584,0.15682 0.76743,0.14724 0.11583,-0.004 0.17815,-0.0113 0.23431,-0.0272 0.25756,-0.0727 0.38195,-0.23885 0.35773,-0.47776 -0.0132,-0.13071 -0.0827,-0.21994 -0.23216,-0.29819 -0.0637,-0.0334 -0.20803,-0.0884 -0.42192,-0.16084 -0.33479,-0.1134 -0.45483,-0.16544 -0.56048,-0.24297 -0.26562,-0.19493 -0.3949,-0.52163 -0.3394,-0.85776 0.0255,-0.1547 0.0857,-0.27765 0.20048,-0.40939 0.1172,-0.13458 0.25498,-0.22538 0.43479,-0.28655 0.2802,-0.0953 0.67169,-0.0795 1.01927,0.0413 0.13775,0.0478 0.21376,0.098 0.25033,0.16529 0.0212,0.0391 0.023,0.053 0.023,0.18391 0,0.13837 -5.7e-4,0.14228 -0.0246,0.16824 -0.0213,0.023 -0.0299,0.0257 -0.0639,0.0198 -0.0216,-0.004 -0.0726,-0.0226 -0.11332,-0.042 -0.0869,-0.0413 -0.20112,-0.0796 -0.31464,-0.10559 -0.11599,-0.0265 -0.46059,-0.0267 -0.56467,-2.8e-4 -0.14741,0.0374 -0.24719,0.1114 -0.29592,0.21939 -0.0201,0.0445 -0.0234,0.0667 -0.0237,0.16018 -3.2e-4,0.0948 0.003,0.11505 0.0231,0.16019 0.0319,0.0702 0.10211,0.14021 0.19013,0.18967 0.10284,0.0578 0.13598,0.0709 0.46241,0.18274 0.43343,0.14854 0.54666,0.20644 0.67662,0.34602 0.1085,0.11653 0.16948,0.24132 0.19848,0.40622 0.0196,0.11152 0.0122,0.30209 -0.0159,0.40875 -0.11509,0.43654 -0.51922,0.71141 -1.07137,0.72869 -0.071,0.002 -0.15278,0.002 -0.18171,-1.5e-4 z m -7.03503,-0.034 c -0.31982,-0.0716 -0.54252,-0.2942 -0.62699,-0.62655 -0.0284,-0.11179 -0.0314,-0.41694 -0.005,-0.52135 0.0893,-0.35419 0.32249,-0.5948 0.67543,-0.69687 0.13901,-0.0402 0.2483,-0.0506 0.46284,-0.0442 0.19843,0.006 0.33019,0.0237 0.54056,0.0728 l 0.10857,0.0254 -0.004,-0.24436 c -0.004,-0.20577 -0.008,-0.25692 -0.0244,-0.3239 -0.0663,-0.2634 -0.19969,-0.37539 -0.49085,-0.41204 -0.11651,-0.0147 -0.31053,-0.008 -0.43007,0.0154 -0.11478,0.0222 -0.29026,0.0782 -0.43769,0.13978 -0.14136,0.059 -0.19223,0.0659 -0.21599,0.0293 -0.0199,-0.0308 -0.0215,-0.30169 -0.002,-0.35209 0.0164,-0.0425 0.0654,-0.0789 0.175,-0.1303 0.27945,-0.13098 0.60748,-0.1967 0.91671,-0.18367 0.61597,0.026 0.93017,0.28577 1.01895,0.8425 0.0172,0.10779 0.0187,0.16933 0.0188,0.75961 1.4e-4,0.86115 0.006,0.92195 0.12044,1.18339 0.055,0.12595 0.0597,0.1509 0.0375,0.19726 -0.013,0.0273 -0.19497,0.16947 -0.26998,0.21101 -0.0377,0.0209 -0.0814,0.0217 -0.11643,0.002 -0.0553,-0.0309 -0.14549,-0.1626 -0.21629,-0.31588 -0.0197,-0.0426 -0.0375,-0.0795 -0.0395,-0.0819 -0.002,-0.002 -0.0435,0.0376 -0.0921,0.0889 -0.17911,0.18901 -0.33484,0.28565 -0.56403,0.35005 -0.0852,0.0239 -0.12156,0.0281 -0.2751,0.0314 -0.14626,0.003 -0.19201,4.7e-4 -0.26399,-0.0156 z m 0.55881,-0.45146 c 0.30294,-0.0582 0.52371,-0.26207 0.58108,-0.53655 0.009,-0.0409 0.0173,-0.14636 0.0203,-0.24403 l 0.005,-0.17198 -0.0658,-0.0162 c -0.21129,-0.0519 -0.49409,-0.0778 -0.65652,-0.06 -0.19466,0.0213 -0.30568,0.0664 -0.39788,0.16139 -0.099,0.10209 -0.13504,0.20549 -0.13504,0.3879 0,0.16724 0.0301,0.26728 0.10772,0.35831 0.11249,0.13188 0.2845,0.17039 0.54095,0.1211 z m 2.383,0.39014 c -0.0894,-0.0157 -0.10495,-0.0391 -0.16591,-0.24946 -0.17025,-0.58756 -0.76409,-2.72071 -0.76843,-2.76028 -0.005,-0.0431 -0.002,-0.0523 0.0193,-0.0758 l 0.0247,-0.0267 0.18932,2.5e-4 c 0.10412,1.3e-4 0.20587,0.004 0.2261,0.009 0.0488,0.0122 0.0786,0.0443 0.10083,0.10847 0.0101,0.029 0.1373,0.5596 0.28277,1.17905 0.31289,1.33235 0.28282,1.20692 0.28797,1.20135 0.002,-0.002 0.1202,-0.5361 0.262,-1.18581 0.15835,-0.72556 0.26626,-1.19968 0.27971,-1.22895 0.0345,-0.0751 0.0705,-0.0845 0.31051,-0.0813 0.2176,0.003 0.22693,0.006 0.26726,0.0862 0.0126,0.0251 0.11962,0.49656 0.28185,1.24163 0.14384,0.66066 0.26416,1.19781 0.26736,1.19367 0.003,-0.004 0.13198,-0.53771 0.28617,-1.1857 0.16606,-0.69792 0.2905,-1.2013 0.30526,-1.23491 0.0415,-0.0945 0.0531,-0.0983 0.29954,-0.0983 0.24128,0 0.24285,5.6e-4 0.24043,0.0867 -0.002,0.0561 -0.80029,2.84186 -0.84079,2.93256 -0.0374,0.0837 -0.058,0.0908 -0.27675,0.0949 -0.21823,0.004 -0.2717,-0.005 -0.3049,-0.0533 -0.0125,-0.0181 -0.0273,-0.0491 -0.033,-0.069 -0.006,-0.0199 -0.12264,-0.54309 -0.25993,-1.16266 -0.13729,-0.61957 -0.25204,-1.13347 -0.25499,-1.142 -0.004,-0.0114 -0.008,-0.009 -0.0137,0.0103 -0.005,0.0142 -0.12043,0.53275 -0.25748,1.15233 -0.1426,0.64472 -0.2582,1.1463 -0.27031,1.17282 -0.0358,0.0784 -0.0565,0.0854 -0.26348,0.0888 -0.0981,0.002 -0.19782,-4.1e-4 -0.22149,-0.005 z"
           id="path51" /></g></g></g></svg>
