<?xml version="1.0" encoding="UTF-8" standalone="no"?>
<!-- Created with Inkscape (http://www.inkscape.org/) -->

<svg
   width="9.5357227mm"
   height="8.3894424mm"
   viewBox="0 0 9.5357227 8.3894424"
   version="1.1"
   id="svg1"
   xml:space="preserve"
   xmlns="http://www.w3.org/2000/svg"
   xmlns:svg="http://www.w3.org/2000/svg"><defs
     id="defs1" /><g
     id="layer1"
     transform="translate(189.43999,-394.17363)"><path
       d="m -186.38867,394.17365 c -0.24278,0 -0.46793,0.0531 -0.66739,0.16509 -0.62335,0.35121 -0.86061,1.20709 -0.73489,2.27268 -1.00828,0.42655 -1.64904,1.05464 -1.64904,1.75697 0,0.70233 0.64076,1.3304 1.64904,1.75695 -0.12569,1.06554 0.11157,1.92146 0.73489,2.27268 0.19907,0.1121 0.42422,0.16508 0.66739,0.16508 0.51756,0 1.11574,-0.25349 1.71655,-0.68838 0.60085,0.43489 1.19977,0.68838 1.71733,0.68838 0.24277,0 0.46792,-0.0531 0.66738,-0.16508 0.62333,-0.35122 0.8606,-1.20711 0.73487,-2.27268 1.00792,-0.42655 1.64828,-1.05478 1.64828,-1.75695 0,-0.70233 -0.64077,-1.33042 -1.64904,-1.75697 0.12569,-1.06555 -0.11157,-1.92147 -0.73489,-2.27268 -0.19907,-0.11241 -0.42422,-0.16509 -0.66739,-0.16509 -0.51756,0 -1.11574,0.2535 -1.71654,0.68839 -0.60085,-0.43489 -1.19918,-0.68839 -1.71655,-0.68839 z m 0,0.67855 c 0.31054,0 0.72125,0.16114 1.16713,0.45968 -0.26217,0.24144 -0.51892,0.51599 -0.76594,0.82169 -0.40063,0.056 -0.77839,0.13775 -1.12833,0.24006 -10e-4,-0.0237 -0.006,-0.0485 -0.007,-0.0719 -0.0425,-0.69018 0.11277,-1.20468 0.41516,-1.37527 0.0894,-0.0504 0.19377,-0.0741 0.31973,-0.0741 z m 3.43309,0 c 0.12555,0 0.23034,0.0237 0.31973,0.0741 0.30237,0.17022 0.45769,0.6851 0.41517,1.37528 -0.001,0.0235 -0.006,0.0482 -0.007,0.0719 -0.35016,-0.10232 -0.7282,-0.18402 -1.1291,-0.24007 -0.24703,-0.30566 -0.50302,-0.58027 -0.76516,-0.82168 0.44584,-0.29848 0.85672,-0.45969 1.16712,-0.45969 z m -1.71654,0.89058 c 0.10765,0.0958 0.21466,0.1968 0.32281,0.30749 -0.10723,-0.003 -0.21381,-0.008 -0.32281,-0.008 -0.10872,0 -0.21513,0.004 -0.32206,0.008 0.10809,-0.11051 0.21444,-0.21191 0.32206,-0.30749 z m 0,0.9777 c 0.32926,0 0.64133,0.0179 0.93742,0.0492 0.18058,0.23952 0.35855,0.49275 0.52537,0.77472 0.1599,0.27027 0.30129,0.5469 0.42603,0.82396 -0.12479,0.27721 -0.26604,0.55427 -0.42603,0.8247 -0.1663,0.28115 -0.34382,0.53276 -0.52382,0.7717 -0.30655,0.0326 -0.62104,0.0515 -0.93897,0.0515 -0.32925,0 -0.64133,-0.018 -0.93743,-0.0492 -0.18058,-0.23953 -0.35855,-0.49201 -0.52537,-0.77398 -0.15999,-0.27042 -0.30123,-0.54749 -0.42603,-0.8247 0.12465,-0.27705 0.26614,-0.55369 0.42603,-0.82395 0.16638,-0.28115 0.34378,-0.53352 0.52383,-0.77245 0.30654,-0.0326 0.62103,-0.0515 0.93897,-0.0515 z m 1.88573,0.20977 c 0.15762,0.0372 0.30918,0.0772 0.45163,0.12192 -0.0322,0.1423 -0.0717,0.28737 -0.11638,0.43395 -0.0512,-0.0936 -0.10074,-0.18756 -0.15598,-0.28096 -0.0569,-0.0962 -0.11998,-0.18241 -0.17926,-0.27491 z m -3.77223,7.4e-4 c -0.0591,0.0921 -0.12178,0.17837 -0.17849,0.27415 -0.0553,0.0935 -0.10488,0.18732 -0.15598,0.28096 -0.0447,-0.14688 -0.0849,-0.29211 -0.11713,-0.43471 0.14505,-0.0447 0.29624,-0.0843 0.45165,-0.12046 z m -1.10584,0.36956 c 0.0837,0.34495 0.19985,0.70253 0.34922,1.06705 -0.14913,0.36366 -0.2647,0.72057 -0.34844,1.06477 -0.69193,-0.32607 -1.08099,-0.73195 -1.08099,-1.06401 0,-0.34083 0.3782,-0.72924 1.01193,-1.03828 0.0216,-0.0106 0.0462,-0.0193 0.0682,-0.0297 z m 5.9839,0.004 c 0.69191,0.32607 1.08098,0.73197 1.08098,1.06401 0,0.34083 -0.37819,0.72923 -1.01193,1.03828 -0.0216,0.0106 -0.0462,0.0192 -0.0683,0.0297 -0.0837,-0.34513 -0.19894,-0.70305 -0.34842,-1.06779 0.14882,-0.36335 0.26398,-0.72012 0.34766,-1.06402 z m -2.99156,0.28853 c -0.43904,0 -0.79465,0.34703 -0.79465,0.7755 0,0.42844 0.35561,0.77547 0.79465,0.77547 0.43904,0 0.79465,-0.34703 0.79465,-0.77547 0,-0.42847 -0.35561,-0.7755 -0.79465,-0.7755 z m -2.22097,1.65776 c 0.0512,0.0936 0.10148,0.18751 0.15676,0.28096 0.0567,0.096 0.11924,0.18247 0.17847,0.2749 -0.15763,-0.0371 -0.30919,-0.0772 -0.45164,-0.12193 0.0322,-0.14245 0.0718,-0.28728 0.1164,-0.43393 z m 4.44194,7.4e-4 c 0.0447,0.14673 0.0849,0.29146 0.11713,0.43394 -0.14506,0.0447 -0.29625,0.0843 -0.45166,0.12046 0.0591,-0.0922 0.12179,-0.17838 0.1785,-0.27415 0.055,-0.0932 0.10499,-0.18676 0.15597,-0.28021 z m -4.66466,1.11172 c 0.35015,0.10231 0.72818,0.18401 1.1291,0.24008 0.24709,0.3058 0.50289,0.58093 0.76517,0.82243 -0.44586,0.29846 -0.8566,0.45969 -1.16713,0.45969 -0.12555,0 -0.23033,-0.0247 -0.31973,-0.0751 -0.30236,-0.17022 -0.45768,-0.68433 -0.41517,-1.37452 0.001,-0.0236 0.006,-0.0487 0.007,-0.0727 z m 4.88737,0 c 0.001,0.0239 0.006,0.049 0.007,0.0727 0.0425,0.69018 -0.11277,1.2039 -0.41517,1.37451 -0.0894,0.0504 -0.19377,0.075 -0.3197,0.075 -0.31055,0 -0.72131,-0.16119 -1.16715,-0.45969 0.26229,-0.24153 0.51879,-0.51658 0.76594,-0.82243 0.40064,-0.0561 0.77838,-0.13775 1.12832,-0.24007 z m -2.76651,0.32338 c 0.10724,0.003 0.21382,0.008 0.32283,0.008 0.10901,0 0.21563,-0.004 0.32281,-0.008 -0.10809,0.11065 -0.21512,0.21181 -0.32281,0.30748 -0.10767,-0.0958 -0.21467,-0.1968 -0.32283,-0.30748 z"
       id="path1-9"
       style="fill:#00d7ff;fill-opacity:0.831373;stroke-width:0.392502" /></g></svg>
