<?xml version="1.0" encoding="UTF-8" standalone="no"?>
<!-- Created with Inkscape (http://www.inkscape.org/) -->

<svg
   width="9.2638721mm"
   height="9.3333454mm"
   viewBox="0 0 9.2638721 9.3333454"
   version="1.1"
   id="svg1"
   xml:space="preserve"
   xmlns="http://www.w3.org/2000/svg"
   xmlns:svg="http://www.w3.org/2000/svg"><defs
     id="defs1" /><g
     id="layer1"
     transform="translate(189.47358,-403.42577)"><g
       id="g2"
       transform="matrix(0.87532658,0,0,0.87532658,-35.196853,26.110996)"><path
         fill="#8bc34a"
         d="m -165.67191,436.33045 c 0.0183,-1.12739 -0.23574,-2.46804 -0.76491,-4.04098 l -0.41486,-1.23349 -0.56357,1.1729 c -0.0302,0.0627 -0.0645,0.12409 -0.10054,0.18468 -0.92577,-0.79481 -2.12698,-1.27821 -3.44302,-1.27821 -2.92259,0 -5.29167,2.36908 -5.29167,5.29167 0,2.92259 2.36908,5.29167 5.29167,5.29167 2.92259,0 5.29167,-2.36908 5.29167,-5.29167 0,-0.0325 -0.004,-0.064 -0.005,-0.0966 z"
         id="path1-1"
         style="stroke-width:0.264583" /><path
         fill="#ffffff"
         d="m -166.88819,438.69132 c -0.8263,1.13824 -2.28892,1.19936 -3.66554,1.17528 h -1.79414 -0.51276 c 1.17157,-0.42148 1.86875,-0.52176 2.58074,-0.89958 1.34091,-0.70511 2.66647,-2.2479 2.94243,-3.85286 -0.51064,1.54411 -2.05819,2.87073 -3.46842,3.41021 -0.96626,0.36857 -2.71145,0.72628 -2.71145,0.72628 l -0.0706,-0.0384 c -1.18798,-0.5977 -1.22397,-3.25782 0.93583,-4.11665 0.94562,-0.37651 1.85023,-0.1696 2.87178,-0.42148 1.09062,-0.26776 2.35215,-1.11337 2.86544,-2.21589 0.57468,1.76398 1.2663,4.52596 0.0267,6.23305 z m -6.27513,1.55761 c -0.0746,0.0926 -0.18865,0.14684 -0.30771,0.14684 -0.21775,0 -0.39555,-0.17912 -0.39555,-0.39688 0,-0.21775 0.17912,-0.39687 0.39555,-0.39687 0.0902,0 0.17912,0.0312 0.24897,0.0889 0.16934,0.13732 0.1958,0.38867 0.0587,0.55801 z"
         id="path2-2"
         style="stroke-width:0.264583" /></g></g></svg>
